<svg width="97" height="40" viewBox="0 0 97 40" fill="none" xmlns="http://www.w3.org/2000/svg">
<path d="M53.6459 16.3484H57.3932V28.5168C57.3932 29.8298 58.4576 30.8943 59.7707 30.8943C61.0837 30.8943 62.1482 29.8298 62.1482 28.5168V5.39926C62.1482 4.08621 61.0837 3.02177 59.7707 3.02177C58.4576 3.02177 57.3932 4.08621 57.3932 5.39926V12.2985H53.6459V8.98006C53.6459 7.65677 52.5732 6.58403 51.2499 6.58403C49.9266 6.58403 48.8538 7.65677 48.8538 8.98006V12.2985H47.3536C46.2353 12.2985 45.3287 13.2051 45.3287 14.3234C45.3287 15.4418 46.2353 16.3484 47.3536 16.3484H48.8538V28.4982C48.8538 29.8215 49.9266 30.8943 51.2499 30.8943C52.5732 30.8943 53.6459 29.8215 53.6459 28.4982V16.3484ZM71.6393 32.867L71.6386 32.8688C71.2547 33.9293 70.796 34.539 70.2323 34.8886C69.6661 35.2397 68.9733 35.3418 68.0897 35.3418H67.5147C66.263 35.3418 65.2484 36.3565 65.2484 37.6081C65.2484 38.6362 65.9441 39.5693 66.9862 39.696C67.544 39.7638 68.133 39.7999 68.7576 39.7999C70.2824 39.7999 71.5462 39.4417 72.6039 38.6413C73.6595 37.8425 74.497 36.6128 75.1887 34.893L75.1888 34.8928L82.9858 15.4325C83.5871 13.9318 82.482 12.2985 80.8653 12.2985C79.911 12.2985 79.0573 12.8916 78.7244 13.786L74.4012 25.4006L70.3305 13.8616C70 12.9249 69.1148 12.2985 68.1215 12.2985C66.4761 12.2985 65.3435 13.9503 65.9366 15.4851L72.1409 31.5415L71.6393 32.867ZM3.37484 30.8943C4.75961 30.8943 5.8822 29.7717 5.8822 28.3869V19.3912H17.6398V28.3869C17.6398 29.7717 18.7623 30.8943 20.1471 30.8943C21.5319 30.8943 22.6545 29.7717 22.6545 28.3869V6.01152C22.6545 4.62674 21.5319 3.50416 20.1471 3.50416C18.7623 3.50416 17.6398 4.62675 17.6398 6.01152V14.7104H5.8822V6.01152C5.8822 4.62674 4.75961 3.50416 3.37484 3.50416C1.99006 3.50416 0.867476 4.62675 0.867476 6.01152V28.3869C0.867476 29.7717 1.99006 30.8943 3.37484 30.8943ZM41.4534 12.2985C40.1301 12.2985 39.0573 13.3712 39.0573 14.6945V22.0417C39.0573 23.7721 38.7161 25.0253 38.0438 25.8445C37.3759 26.6584 36.3618 27.067 34.9597 27.067C33.7229 27.067 32.7925 26.7223 32.1671 25.9735C31.5373 25.2196 31.196 24.032 31.196 22.3014V14.6945C31.196 13.3712 30.1233 12.2985 28.8 12.2985C27.4767 12.2985 26.4039 13.3712 26.4039 14.6945V23.897C26.4039 26.1656 27.0322 28.0371 28.2099 29.343C29.3892 30.6507 31.1063 31.3767 33.2528 31.3767C35.6037 31.3767 37.897 30.2999 39.1048 28.6697L39.1285 28.8433C39.2887 30.0183 40.2922 30.8943 41.4781 30.8943C42.7877 30.8943 43.8494 29.8326 43.8494 28.5229V14.6945C43.8494 13.3712 42.7767 12.2985 41.4534 12.2985Z" fill="white" stroke="white" stroke-width="0.265049"/>
<path d="M90.6001 13.0831C86.9157 13.0831 84.1367 10.3042 84.1367 6.68217C84.1367 3.06019 86.9469 0.28125 90.6001 0.28125C94.2533 0.28125 97.001 3.02897 97.001 6.68217C97.001 10.3354 94.2533 13.0831 90.6001 13.0831ZM90.6001 12.0215C93.6288 12.0215 95.8769 9.74213 95.8769 6.68217C95.8769 3.62222 93.6288 1.34287 90.6001 1.34287C87.5401 1.34287 85.292 3.62222 85.292 6.68217C85.292 9.74213 87.5401 12.0215 90.6001 12.0215ZM89.2262 9.60162C89.2262 9.92064 88.9676 10.1793 88.6486 10.1793C88.3296 10.1793 88.0709 9.92064 88.0709 9.60162V3.55017C88.0709 3.24507 88.3183 2.99774 88.6234 2.99774H90.8811C92.4423 2.99774 93.5039 3.80956 93.5039 5.18342C93.5039 6.12014 92.9731 6.90074 92.0052 7.24421L93.1487 9.35195C93.3512 9.72521 93.081 10.1793 92.6564 10.1793C92.448 10.1793 92.2568 10.0636 92.1601 9.87901L90.9436 7.55645H89.2262V9.60162ZM92.255 5.24587C92.255 4.46527 91.7242 4.09058 90.8499 4.09058H89.2262V6.46361H90.8499C91.7242 6.46361 92.255 6.02647 92.255 5.24587Z" fill="white"/>
</svg>
