<svg width="16" height="16" viewBox="0 0 16 16" fill="none" xmlns="http://www.w3.org/2000/svg">
<path fill-rule="evenodd" clip-rule="evenodd" d="M8.78512 0.85999C8.28923 0.624795 7.71396 0.624795 7.21808 0.859989C6.87479 1.02281 6.63127 1.33101 6.4155 1.67934C6.19856 2.02957 5.96054 2.50562 5.66414 3.09844L5.66413 3.09846L5.65252 3.12168L5.41363 3.59947C5.21038 4.00597 5.15127 4.1125 5.07707 4.19017C5.00053 4.27028 4.90875 4.33428 4.80712 4.37841C4.70859 4.42118 4.5882 4.43982 4.1365 4.49001L3.91964 4.51411L3.89361 4.517H3.8936C3.18154 4.59611 2.61271 4.65931 2.18206 4.74691C1.75734 4.8333 1.36151 4.96118 1.08443 5.24388C0.688 5.64835 0.501367 6.2137 0.579079 6.7747C0.633394 7.16678 0.875282 7.50522 1.1651 7.82751C1.45896 8.15424 1.87836 8.54375 2.40338 9.03126L2.42256 9.04908L2.65151 9.26165C3.04921 9.63094 3.15118 9.7354 3.20831 9.84664C3.26729 9.96154 3.29871 10.0885 3.30006 10.2177C3.30138 10.3425 3.25903 10.485 3.0769 11.0041L3.06829 11.0287L3.06827 11.0287C2.7995 11.7947 2.58665 12.4014 2.46579 12.8733C2.34839 13.3318 2.28261 13.782 2.43567 14.1718C2.65104 14.7204 3.11764 15.1316 3.68898 15.2762C4.09384 15.3787 4.52833 15.2593 4.96445 15.0873C5.41216 14.9107 5.97908 14.6272 6.69387 14.2698L6.71728 14.2581L7.27307 13.9802C7.6478 13.7928 7.75013 13.7467 7.84834 13.7283C7.9496 13.7093 8.05359 13.7093 8.15486 13.7283C8.25306 13.7467 8.35539 13.7928 8.73013 13.9802L9.28592 14.2581L9.30939 14.2698C10.0242 14.6272 10.591 14.9107 11.0387 15.0873C11.4748 15.2593 11.9093 15.3787 12.3142 15.2762C12.8855 15.1316 13.3522 14.7204 13.5675 14.1718C13.7206 13.782 13.6548 13.3318 13.5374 12.8733C13.4165 12.4014 13.2037 11.7947 12.9349 11.0287V11.0286L12.9263 11.0041C12.7442 10.485 12.7018 10.3425 12.7031 10.2177C12.7045 10.0885 12.7359 9.96154 12.7949 9.84664C12.852 9.7354 12.954 9.63094 13.3517 9.26165L13.5806 9.04908L13.5998 9.03119C14.1249 8.54368 14.5443 8.15424 14.8381 7.82751C15.1279 7.50522 15.3698 7.16678 15.4241 6.7747C15.5019 6.2137 15.3152 5.64835 14.9187 5.24388C14.6417 4.96118 14.2459 4.8333 13.8211 4.74691C13.3905 4.65931 12.8217 4.59611 12.1096 4.517L12.0835 4.51411L11.8667 4.49001C11.415 4.43982 11.2946 4.42118 11.1961 4.37841C11.0944 4.33428 11.0027 4.27028 10.9262 4.19017C10.852 4.1125 10.7928 4.00597 10.5896 3.59946L10.3507 3.12168L10.3391 3.09845C10.0426 2.50562 9.80467 2.02957 9.58772 1.67934C9.37196 1.33101 9.12847 1.02281 8.78512 0.85999Z" fill="#000"/>
</svg>
